<?xml version="1.0" encoding="utf-8"?>
<!-- Generator: Adobe Illustrator 24.0.2, SVG Export Plug-In . SVG Version: 6.00 Build 0)  -->
<svg version="1.1" id="Layer_1" xmlns="http://www.w3.org/2000/svg" xmlns:xlink="http://www.w3.org/1999/xlink" x="0px" y="0px"
	 viewBox="0 0 332.2 162.9" style="enable-background:new 0 0 332.2 162.9;" xml:space="preserve">
<style type="text/css">
	.st0{fill-rule:evenodd;clip-rule:evenodd;fill:#009140;}
	.st1{fill-rule:evenodd;clip-rule:evenodd;fill:#12B0AD;}
	.st2{fill-rule:evenodd;clip-rule:evenodd;fill:#82BF24;}
	.st3{fill:#615C5C;}
	.st4{fill:#969494;}
</style>
<g>
	<g>
		<polygon class="st3" points="28.4,102.5 14.6,80.7 10.9,80.7 10.9,109.8 14.9,109.8 14.9,88.4 28.7,109.8 32.4,109.8 32.4,80.7 
			28.4,80.7 		"/>
		<polygon class="st3" points="30.6,69.7 45.3,69.7 45.3,65.8 30.6,65.8 30.6,57.1 43.1,57.1 43.1,53.2 30.6,53.2 30.6,44.4 
			45.3,44.4 45.3,40.5 30.6,40.5 28.5,40.5 26.5,40.5 26.5,69.7 28.5,69.7 		"/>
		<polygon class="st3" points="30.6,29.5 45.3,29.5 45.3,25.6 30.6,25.6 30.6,16.9 43.1,16.9 43.1,13 30.6,13 30.6,4.2 45.3,4.2 
			45.3,0.3 30.6,0.3 28.5,0.3 26.5,0.3 26.5,29.5 28.5,29.5 		"/>
		<path class="st3" d="M19.1,64.9c0.9-1.6,1.3-3.5,1.3-5.7v-8.3c0-2.2-0.4-4.1-1.3-5.7c-0.9-1.6-2.1-2.8-3.8-3.6s-3.7-1.2-6-1.2H4.1
			H2.8H0v29.2h2.8h1.3h5.1c2.3,0,4.3-0.4,6-1.2C16.9,67.6,18.2,66.4,19.1,64.9z M9.4,65.8H4.1V44.4h5.3c2.1,0,3.8,0.5,5,1.7
			c1.2,1.1,1.8,2.7,1.8,4.7v8.6c0,2-0.6,3.6-1.8,4.7C13.2,65.2,11.5,65.8,9.4,65.8z"/>
		<path class="st3" d="M4.1,29.5h5.1c2.3,0,4.3-0.4,6-1.2s2.9-2,3.8-3.6c0.9-1.6,1.3-3.5,1.3-5.7v-8.3c0-2.2-0.4-4.1-1.3-5.7
			c-0.9-1.6-2.1-2.8-3.8-3.6s-3.7-1.2-6-1.2H4.1H2.8H0v29.2h2.8L4.1,29.5L4.1,29.5z M4.1,4.2h5.3c2.1,0,3.8,0.6,5,1.7
			c1.2,1.1,1.8,2.7,1.8,4.7v8.6c0,2-0.6,3.6-1.8,4.7c-1.2,1.1-2.9,1.7-5,1.7H4.1V4.2z"/>
		<path class="st3" d="M54.7,18.2H62c1.7,0,3.3-0.4,4.6-1.1c1.3-0.7,2.4-1.8,3.1-3.1s1.1-2.9,1.1-4.7c0-1.8-0.4-3.3-1.1-4.7
			c-0.7-1.4-1.8-2.4-3.1-3.1c-1.3-0.8-2.9-1.1-4.6-1.1h-7.2h-2h-2.1v29.2h4.1V18.2z M54.7,4.2h7.3c0.9,0,1.7,0.2,2.3,0.6
			s1.2,1,1.6,1.8c0.4,0.8,0.6,1.6,0.6,2.6c0,1-0.2,1.9-0.6,2.6c-0.4,0.8-0.9,1.4-1.6,1.8c-0.7,0.4-1.4,0.6-2.3,0.6h-7.3V4.2z"/>
		<rect x="0" y="80.7" class="st3" width="4.1" height="29.2"/>
		<path class="st3" d="M296.4,34c-0.1-0.1-0.2-0.1-0.4-0.2l-0.1,0c-0.7-0.4-1.3-0.6-1.9-0.8c-0.6-0.2-1.2-0.3-2-0.3
			c-1.4,0-2.4,0.4-3.1,1.3c-0.7,0.9-1,2.2-1,3.9v0.5h3.2v-0.4c0-0.6,0.1-1,0.4-1.4c0.3-0.3,0.7-0.5,1.2-0.5c0.3,0,0.6,0.1,1,0.2
			c0.3,0.1,0.7,0.4,1.2,0.7c0.2,0.1,0.4,0.2,0.6,0.3c0.2,0.1,0.4,0.2,0.6,0.3l0.1,0c0.3,0.2,0.7,0.3,1,0.4c0.3,0.1,0.7,0.2,1,0.3
			c0.4,0.1,0.8,0.1,1.2,0.1c1.4,0,2.4-0.4,3.1-1.3c0.7-0.9,1-2.2,1-4v-0.5h-3.2V33c0,0.6-0.1,1.1-0.4,1.5c-0.3,0.3-0.7,0.5-1.2,0.5
			c-0.3,0-0.6-0.1-0.9-0.2c-0.3-0.1-0.7-0.3-1.1-0.6C296.6,34.1,296.5,34,296.4,34z"/>
		<path class="st3" d="M123.2,29.5l-6.8-12.8c0.5-0.2,1-0.3,1.5-0.6c1.3-0.7,2.3-1.7,3-3c0.7-1.3,1.1-2.8,1.1-4.4
			c0-1.7-0.4-3.1-1.1-4.4c-0.7-1.3-1.7-2.3-3-3c-1.3-0.7-2.8-1-4.5-1H106h-2.3h-1.8v29.2h4.1V17.1h6.1l6.2,12.4L123.2,29.5
			L123.2,29.5z M113.7,13.2H106V4.2h7.6c0.8,0,1.5,0.2,2.1,0.6c0.6,0.4,1.1,0.9,1.4,1.6c0.3,0.7,0.5,1.5,0.5,2.4s-0.2,1.7-0.5,2.4
			s-0.8,1.2-1.4,1.6C115.2,13.1,114.5,13.2,113.7,13.2z"/>
		<polygon class="st3" points="90.2,84.6 98.5,84.6 98.5,109.9 102.6,109.9 102.6,84.6 110.8,84.6 110.8,80.7 90.2,80.7 		"/>
		<polygon class="st3" points="209.4,29.5 224.1,29.5 224.1,25.6 209.4,25.6 209.4,16.9 221.9,16.9 221.9,13 209.4,13 209.4,4.2 
			224.1,4.2 224.1,0.3 209.4,0.3 207.3,0.3 205.3,0.3 205.3,29.5 207.3,29.5 		"/>
		<path class="st3" d="M96.3,70c2,0,3.8-0.5,5.4-1.3c1.6-0.9,2.8-2.1,3.6-3.8c0.9-1.6,1.3-3.5,1.3-5.6v-8.3c0-2.1-0.4-4-1.3-5.6
			c-0.9-1.6-2.1-2.9-3.6-3.8c-1.6-0.9-3.4-1.3-5.4-1.3s-3.8,0.4-5.4,1.3c-1.6,0.9-2.8,2.1-3.6,3.8s-1.3,3.5-1.3,5.6v8.3
			c0,2.1,0.4,4,1.3,5.6c0.9,1.6,2.1,2.9,3.6,3.8C92.5,69.5,94.3,70,96.3,70z M90.3,50.8c0-1.3,0.3-2.5,0.8-3.5
			c0.5-1,1.2-1.8,2.1-2.3c0.9-0.5,2-0.8,3.2-0.8c1.2,0,2.3,0.3,3.2,0.8c0.9,0.5,1.6,1.3,2.1,2.3c0.5,1,0.8,2.1,0.8,3.5v8.5
			c0,1.3-0.3,2.5-0.8,3.5c-0.5,1-1.2,1.8-2.1,2.3c-0.9,0.5-2,0.8-3.2,0.8c-1.2,0-2.3-0.3-3.2-0.8c-0.9-0.5-1.6-1.3-2.1-2.3
			c-0.5-1-0.8-2.1-0.8-3.5V50.8z"/>
		<polygon class="st3" points="125.1,59.8 116.6,40.5 112.7,40.5 112.7,69.7 116.7,69.7 116.7,49.9 123.7,65.6 126.6,65.6 
			133.6,49.6 133.6,69.7 137.5,69.7 137.5,40.5 133.7,40.5 		"/>
		<polygon class="st3" points="132.5,29.5 136.6,29.5 136.6,4.2 144.8,4.2 144.8,0.3 124.3,0.3 124.3,4.2 132.5,4.2 		"/>
		<polygon class="st3" points="233.5,8 247.3,29.5 251,29.5 251,0.3 247,0.3 247,22.1 233.2,0.3 229.5,0.3 229.5,29.5 233.5,29.5 		
			"/>
		<path class="st3" d="M66,47.5c0.5-1,1.2-1.8,2.1-2.4c0.9-0.6,1.9-0.9,3.1-0.9c0.9,0,1.7,0.2,2.5,0.6c0.8,0.4,1.5,0.9,2.1,1.7
			c0.6,0.7,1,1.5,1.3,2.4h4.2c-0.3-1.7-1-3.3-1.9-4.6c-0.9-1.3-2.1-2.3-3.5-3c-1.4-0.7-2.9-1.1-4.6-1.1c-2,0-3.8,0.5-5.3,1.4
			c-1.5,0.9-2.7,2.2-3.6,3.8s-1.3,3.6-1.3,5.7v8c0,2.2,0.4,4.1,1.3,5.7c0.8,1.6,2,2.9,3.6,3.8c1.5,0.9,3.3,1.3,5.3,1.3
			c1.7,0,3.2-0.4,4.6-1.1c1.4-0.7,2.6-1.7,3.5-3s1.6-2.8,1.9-4.6h-4.2c-0.3,1-0.7,1.8-1.3,2.5c-0.6,0.7-1.3,1.3-2.1,1.6
			C73,65.8,72.1,66,71.3,66c-1.2,0-2.2-0.3-3.1-0.9c-0.9-0.6-1.6-1.4-2.1-2.4c-0.5-1-0.7-2.3-0.7-3.6v-8
			C65.3,49.7,65.5,48.5,66,47.5z"/>
		<rect x="83.4" y="80.7" class="st3" width="4.1" height="29.2"/>
		<path class="st3" d="M79.6,23.1h11.8l2.2,6.4H98L87.2,0.3h-3.5L73,29.5h4.4L79.6,23.1z M85.5,5.9L90,19.2h-9.1L85.5,5.9z"/>
		<polygon class="st3" points="262,29.5 266.1,29.5 266.1,4.2 274.4,4.2 274.4,0.3 253.8,0.3 253.8,4.2 262,4.2 		"/>
		<polygon class="st3" points="219.5,102.5 205.7,80.7 202,80.7 202,109.8 206,109.8 206,88.4 219.8,109.8 223.5,109.8 223.5,80.7 
			219.5,80.7 		"/>
		<path class="st3" d="M155.6,0.3l-10.8,29.2h4.4l2.2-6.4h11.8l2.2,6.4h4.4L159.1,0.3H155.6z M152.8,19.2l4.5-13.3l4.5,13.3H152.8z"
			/>
		<path class="st3" d="M160.3,59.2c0,2.1-0.5,3.8-1.6,4.9c-1.1,1.2-2.6,1.8-4.6,1.8c-2,0-3.5-0.6-4.5-1.8s-1.6-2.8-1.6-4.9V40.5
			h-4.1v18.6c0,2.3,0.4,4.3,1.2,5.9c0.8,1.6,2,2.9,3.5,3.7s3.4,1.3,5.5,1.3s4-0.4,5.6-1.3c1.5-0.9,2.7-2.1,3.5-3.7
			c0.8-1.6,1.2-3.6,1.2-5.9V40.5h-4.1L160.3,59.2L160.3,59.2z"/>
		<path class="st3" d="M238.3,80.7l-10.8,29.2h4.4l2.2-6.4h11.8l2.2,6.4h4.4l-10.8-29.2L238.3,80.7L238.3,80.7z M235.4,99.6
			l4.5-13.3l4.5,13.3H235.4z"/>
		<path class="st3" d="M144.4,87.6c0.5-1,1.2-1.8,2.1-2.4c0.9-0.6,1.9-0.9,3.1-0.9c0.9,0,1.7,0.2,2.5,0.6c0.8,0.4,1.5,0.9,2.1,1.7
			c0.6,0.7,1,1.5,1.3,2.4h4.2c-0.3-1.7-1-3.3-1.9-4.6c-0.9-1.3-2.1-2.3-3.5-3c-1.4-0.7-3-1.1-4.6-1.1c-2,0-3.8,0.5-5.3,1.4
			c-1.5,0.9-2.7,2.2-3.6,3.8s-1.3,3.6-1.3,5.7v8c0,2.2,0.4,4.1,1.3,5.7c0.8,1.6,2,2.9,3.6,3.8c1.5,0.9,3.3,1.3,5.3,1.3
			c1.7,0,3.2-0.4,4.6-1.1c1.4-0.7,2.6-1.7,3.5-3s1.6-2.8,1.9-4.6h-4.2c-0.3,1-0.7,1.8-1.3,2.5c-0.6,0.7-1.3,1.3-2.1,1.6
			c-0.8,0.4-1.6,0.5-2.5,0.5c-1.2,0-2.2-0.3-3.1-0.9s-1.6-1.4-2.1-2.4c-0.5-1-0.7-2.3-0.7-3.6v-8C143.7,89.9,143.9,88.7,144.4,87.6z
			"/>
		<rect x="165" y="80.7" class="st3" width="4.1" height="29.2"/>
		<path class="st3" d="M229.6,61.3h-4.2c-0.3,1-0.7,1.8-1.3,2.5c-0.6,0.7-1.3,1.3-2.1,1.6c-0.8,0.4-1.6,0.5-2.5,0.5
			c-1.2,0-2.2-0.3-3.1-0.9c-0.9-0.6-1.6-1.4-2.1-2.4c-0.5-1-0.7-2.3-0.7-3.6v-8c0-1.4,0.3-2.6,0.7-3.6c0.5-1,1.2-1.8,2.1-2.4
			c0.9-0.6,1.9-0.9,3.1-0.9c0.9,0,1.7,0.2,2.5,0.6c0.8,0.4,1.5,0.9,2.1,1.7c0.6,0.7,1,1.5,1.3,2.4h4.2c-0.3-1.7-1-3.3-1.9-4.6
			c-0.9-1.3-2.1-2.3-3.5-3c-1.4-0.7-3-1.1-4.6-1.1c-2,0-3.8,0.5-5.3,1.4c-1.5,0.9-2.7,2.2-3.6,3.8s-1.3,3.6-1.3,5.7v8
			c0,2.2,0.4,4.1,1.3,5.7c0.8,1.6,2,2.9,3.6,3.8s3.3,1.3,5.3,1.3c1.7,0,3.2-0.4,4.6-1.1c1.4-0.7,2.6-1.7,3.5-3
			C228.6,64.5,229.3,63,229.6,61.3z"/>
		<rect x="199.1" y="40.5" class="st3" width="4.1" height="29.2"/>
		<path class="st3" d="M190.9,81.7c-1.6-0.9-3.4-1.3-5.4-1.3s-3.8,0.4-5.4,1.3c-1.5,0.9-2.8,2.1-3.6,3.8s-1.3,3.5-1.3,5.6v8.3
			c0,2.1,0.4,4,1.3,5.6c0.9,1.6,2,2.9,3.6,3.8c1.5,0.9,3.4,1.3,5.4,1.3s3.8-0.5,5.4-1.3c1.5-0.9,2.8-2.1,3.6-3.8
			c0.9-1.6,1.3-3.5,1.3-5.6v-8.3c0-2.1-0.4-4-1.3-5.6C193.7,83.9,192.5,82.6,190.9,81.7z M191.6,99.5c0,1.3-0.3,2.5-0.8,3.5
			c-0.5,1-1.2,1.8-2.1,2.3c-0.9,0.5-2,0.8-3.2,0.8c-1.2,0-2.3-0.3-3.2-0.8c-0.9-0.5-1.6-1.3-2.1-2.3c-0.5-1-0.8-2.1-0.8-3.5V91
			c0-1.3,0.3-2.5,0.8-3.5c0.5-1,1.2-1.8,2.1-2.3c0.9-0.5,2-0.8,3.2-0.8c1.2,0,2.3,0.3,3.2,0.8c0.9,0.5,1.6,1.3,2.1,2.3
			c0.5,1,0.8,2.1,0.8,3.5V99.5z"/>
		<polygon class="st3" points="192.4,69.6 192.4,40.5 188.3,40.5 188.3,62.3 174.5,40.5 170.8,40.5 170.8,69.6 174.8,69.6 
			174.8,48.2 188.6,69.6 		"/>
		<polygon class="st3" points="186.2,19.6 177.6,0.3 173.8,0.3 173.8,29.5 177.8,29.5 177.8,9.7 184.8,25.4 187.6,25.4 194.6,9.4 
			194.6,29.5 198.6,29.5 198.6,0.3 194.8,0.3 		"/>
		<path class="st3" d="M294,40.5l-10.8,29.2h4.4l2.2-6.4h11.8l2.2,6.4h4.4l-10.8-29.2H294z M291.2,59.4l4.5-13.3l4.5,13.3H291.2z"/>
		<path class="st3" d="M292.2,28.4c1.5-0.9,2.8-2.1,3.6-3.8c0.8-1.6,1.3-3.5,1.3-5.6v-8.3c0-2.1-0.4-4-1.3-5.6
			c-0.9-1.6-2-2.9-3.6-3.8c-1.5-0.9-3.3-1.3-5.4-1.3c-2,0-3.8,0.4-5.4,1.3c-1.5,0.9-2.8,2.1-3.6,3.8c-0.9,1.6-1.3,3.5-1.3,5.6V19
			c0,2.1,0.4,4,1.3,5.6c0.9,1.6,2.1,2.9,3.6,3.8c1.6,0.9,3.4,1.3,5.4,1.3C288.8,29.8,290.6,29.3,292.2,28.4z M281.5,22.6
			c-0.5-1-0.8-2.1-0.8-3.5v-8.5c0-1.3,0.3-2.5,0.8-3.5c0.5-1,1.2-1.8,2.1-2.3c0.9-0.5,2-0.8,3.2-0.8c1.2,0,2.3,0.3,3.2,0.8
			c0.9,0.5,1.6,1.3,2.1,2.3c0.5,1,0.8,2.1,0.8,3.5v8.5c0,1.3-0.3,2.5-0.8,3.5c-0.5,1-1.2,1.8-2.1,2.3c-0.9,0.5-2,0.8-3.2,0.8
			c-1.2,0-2.3-0.3-3.2-0.8C282.7,24.4,282,23.6,281.5,22.6z"/>
		<path class="st3" d="M330.9,45.3c-0.9-1.6-2.1-2.9-3.6-3.8c-1.5-0.9-3.3-1.3-5.4-1.3c-2,0-3.8,0.4-5.4,1.3
			c-1.5,0.9-2.8,2.1-3.6,3.8c-0.9,1.6-1.3,3.5-1.3,5.6v8.3c0,2.1,0.4,4,1.3,5.6c0.9,1.6,2.1,2.9,3.6,3.8c1.6,0.9,3.4,1.3,5.4,1.3
			c2,0,3.8-0.5,5.4-1.3c1.5-0.9,2.8-2.1,3.6-3.8c0.8-1.6,1.3-3.5,1.3-5.6v-8.3C332.2,48.8,331.7,46.9,330.9,45.3z M328,59.4
			c0,1.3-0.3,2.5-0.8,3.5c-0.5,1-1.2,1.8-2.1,2.3c-0.9,0.5-2,0.8-3.2,0.8c-1.2,0-2.3-0.3-3.2-0.8c-0.9-0.5-1.6-1.3-2.1-2.3
			c-0.5-1-0.8-2.1-0.8-3.5v-8.5c0-1.3,0.3-2.5,0.8-3.5c0.5-1,1.2-1.8,2.1-2.3c0.9-0.5,2-0.8,3.2-0.8c1.2,0,2.3,0.3,3.2,0.8
			c0.9,0.5,1.6,1.3,2.1,2.3c0.5,1,0.8,2.1,0.8,3.5V59.4z"/>
		<path class="st3" d="M54.5,94.7c-1.2-0.5-2.7-0.9-4.4-1.3c-0.1,0-0.1,0-0.2,0s-0.2,0-0.2,0s-0.1,0-0.1,0c-0.1,0-0.1,0-0.1,0
			c-1.5-0.3-2.7-0.6-3.5-0.9c-0.9-0.3-1.6-0.7-2.1-1.3c-0.6-0.6-0.9-1.4-0.9-2.4v0c0-1.5,0.6-2.6,1.6-3.4c1.1-0.8,2.7-1.2,4.6-1.2
			c1.1,0,2.2,0.2,3.3,0.6c1.1,0.4,2.2,1,3.3,1.8l2.3-3.3c-0.9-0.7-1.9-1.3-2.9-1.7c-1-0.5-2-0.8-3-1c-1-0.2-2-0.3-3.1-0.3
			c-2.2,0-4.1,0.3-5.6,1C42,82.1,40.8,83,40,84.3s-1.2,2.8-1.2,4.6v0c0,2.1,0.4,3.6,1.3,4.8c0.9,1.1,1.9,1.9,3.1,2.3
			c1.2,0.4,2.8,0.8,4.8,1.1l0.3,0.1c0,0,0.1,0,0.1,0c0,0,0.1,0,0.1,0c1.3,0.2,2.4,0.5,3.2,0.8c0.8,0.3,1.5,0.7,2.1,1.3
			c0.5,0.6,0.8,1.4,0.8,2.4v0c0,1.4-0.6,2.5-1.8,3.3c-1.2,0.8-2.8,1.2-4.9,1.2c-1.6,0-3-0.2-4.4-0.7s-2.6-1.2-3.7-2.2l-2.6,3.1
			c0.9,0.8,2,1.5,3.1,2c1.1,0.5,2.3,0.9,3.5,1.2c1.3,0.3,2.6,0.4,4,0.4c2.3,0,4.2-0.3,5.8-1c1.6-0.7,2.8-1.6,3.7-2.9
			c0.8-1.3,1.3-2.8,1.3-4.6v0c0-1.9-0.4-3.4-1.2-4.5C56.7,96,55.7,95.2,54.5,94.7z"/>
		<path class="st3" d="M265.5,47.5c0.5-1,1.2-1.8,2.1-2.4c0.9-0.6,1.9-0.9,3.1-0.9c0.9,0,1.7,0.2,2.5,0.6c0.8,0.4,1.5,0.9,2.1,1.7
			c0.6,0.7,1,1.5,1.3,2.4h4.2c-0.3-1.7-1-3.3-1.9-4.6c-0.9-1.3-2.1-2.3-3.5-3c-1.4-0.7-3-1.1-4.6-1.1c-2,0-3.8,0.5-5.3,1.4
			c-1.5,0.9-2.7,2.2-3.6,3.8c-0.8,1.6-1.3,3.6-1.3,5.7v8c0,2.2,0.4,4.1,1.3,5.7c0.8,1.6,2,2.9,3.6,3.8c1,0.6,2.1,1,3.3,1.2v3.5
			l0.4,0c0.9,0,1.6,0.1,2.1,0.2c0.5,0.2,0.7,0.4,0.7,0.7c0,0.4-0.2,0.6-0.5,0.8c-0.4,0.2-0.9,0.3-1.6,0.3c-0.6,0-1.3-0.1-1.9-0.3
			l-0.8,2.8c0.9,0.2,2,0.4,3.3,0.4c1.7,0,3-0.3,3.9-0.9c0.9-0.6,1.3-1.5,1.3-2.7c0-1.2-0.4-2.1-1.2-2.7c-0.6-0.4-1.3-0.7-2.3-0.8
			v-1.2c1.2-0.1,2.3-0.4,3.3-0.9c1.4-0.7,2.6-1.7,3.5-3s1.6-2.8,1.9-4.6h-4.2c-0.3,1-0.7,1.8-1.3,2.5c-0.6,0.7-1.3,1.3-2.1,1.6
			c-0.8,0.4-1.6,0.5-2.5,0.5c-1.2,0-2.2-0.3-3.1-0.9c-0.9-0.6-1.6-1.4-2.1-2.4c-0.5-1-0.7-2.3-0.7-3.6v-8
			C264.7,49.7,265,48.5,265.5,47.5z"/>
		<polygon class="st3" points="260.6,80.7 256.5,80.7 256.5,109.9 258.5,109.9 260.6,109.9 275.2,109.9 275.2,106 260.6,106 		"/>
		<path class="st3" d="M246.4,40.5h-3.5l-10.8,29.2h4.4l2.2-6.4h11.8l2.2,6.4h4.4L246.4,40.5z M240.1,59.4l4.5-13.3l4.5,13.3H240.1z
			"/>
		<path class="st3" d="M129.6,99.4c0,2.1-0.5,3.8-1.6,4.9c-1.1,1.2-2.6,1.8-4.6,1.8c-2,0-3.5-0.6-4.5-1.8s-1.6-2.8-1.6-4.9V80.7
			h-4.1v18.6c0,2.3,0.4,4.3,1.2,5.9c0.8,1.6,2,2.9,3.5,3.7c1.5,0.8,3.4,1.3,5.5,1.3c2.2,0,4-0.4,5.6-1.3c1.5-0.8,2.7-2.1,3.5-3.7
			c0.8-1.6,1.2-3.6,1.2-5.9V80.7h-4.1L129.6,99.4L129.6,99.4z"/>
		<polygon class="st3" points="60,84.6 68.3,84.6 68.3,109.9 72.4,109.9 72.4,84.6 80.6,84.6 80.6,80.7 60,80.7 		"/>
	</g>
	<rect x="52.1" y="123.5" class="st4" width="4.3" height="4.3"/>
	<g>
		<rect x="52.1" y="132.3" class="st4" width="4.3" height="21.8"/>
		<path class="st4" d="M38.2,131.9c-1.3,0-2.5,0.4-3.6,1.1c-0.9,0.6-1.6,1.4-2.2,2.4v-3.1h-4.3V154h4.3v-13.8c0-1.3,0.4-2.4,1.1-3.1
			c0.8-0.7,1.8-1.1,3.2-1.1c1.4,0,2.6,0.4,3.4,1.3s1.2,2,1.2,3.6V154h4.3v-13.2c0-2.8-0.6-5-1.9-6.5
			C42.4,132.7,40.6,131.9,38.2,131.9z"/>
		<path class="st4" d="M17.2,143.1c0,2.2-0.6,3.9-1.7,5.2c-1.1,1.2-2.7,1.8-4.8,1.8c-2,0-3.6-0.6-4.7-1.8c-1.1-1.2-1.7-2.9-1.7-5.2
			v-19.6H0V143c0,2.4,0.4,4.4,1.3,6.1c0.8,1.7,2.1,3,3.7,3.9c1.6,0.9,3.5,1.3,5.8,1.3c2.3,0,4.2-0.4,5.8-1.3
			c1.6-0.9,2.8-2.2,3.7-3.9s1.3-3.7,1.3-6.1v-19.5h-4.3L17.2,143.1L17.2,143.1z"/>
		<path class="st4" d="M138.2,136c-0.6-1.3-1.4-2.3-2.5-3c-1.1-0.7-2.4-1-4-1c-1.3,0-2.5,0.3-3.5,1c-0.9,0.6-1.5,1.4-2.1,2.3v-3
			h-4.3v30.6h4.3v-11.8c0.5,0.9,1.1,1.7,1.9,2.3c1,0.7,2.2,1,3.5,1c1.6,0,2.9-0.3,4.1-1c1.1-0.7,2-1.7,2.6-3
			c0.6-1.3,0.9-2.9,0.9-4.7v-4.7C139.1,138.9,138.8,137.3,138.2,136z M134.8,145.5c0,1.6-0.4,2.8-1.2,3.6c-0.8,0.9-1.9,1.3-3.3,1.3
			c-0.9,0-1.7-0.2-2.3-0.5c-0.6-0.3-1.1-0.9-1.5-1.5c-0.3-0.7-0.5-1.5-0.5-2.4v-5.9c0-0.9,0.2-1.7,0.5-2.3s0.8-1.2,1.5-1.5
			c0.6-0.3,1.4-0.5,2.3-0.5c1.4,0,2.5,0.4,3.3,1.3s1.2,2.1,1.2,3.7V145.5z"/>
		<path class="st4" d="M112.6,141.6c-1.1-0.3-2.4-0.5-3.9-0.6c0,0-0.1,0-0.1,0c0,0-0.1,0-0.1,0c-0.1,0-0.2,0-0.3,0
			c-0.1,0-0.2,0-0.3,0c-1.2-0.1-2-0.2-2.7-0.3c-0.6-0.1-1.1-0.3-1.6-0.6c-0.4-0.3-0.6-0.7-0.6-1.3c0-1,0.4-1.7,1.1-2.2
			c0.7-0.5,1.8-0.7,3.3-0.7c1,0,2,0.2,3.1,0.5c1,0.3,2.1,0.9,3.2,1.6l2.6-3.1c-0.9-0.6-1.8-1.2-2.7-1.6c-0.9-0.4-1.9-0.7-3-0.9
			c-1-0.2-2.1-0.3-3.2-0.3c-1.9,0-3.4,0.3-4.7,0.8c-1.3,0.5-2.2,1.3-2.8,2.3c-0.6,1-0.9,2.3-0.9,3.8c0,1.5,0.3,2.7,1,3.5
			s1.5,1.4,2.4,1.7c1,0.3,2.2,0.5,3.6,0.6c0.1,0,0.1,0,0.2,0c0,0,0.1,0,0.2,0c0.1,0,0.2,0,0.4,0c0.1,0,0.2,0,0.4,0
			c1.2,0.1,2.2,0.2,2.9,0.3c0.7,0.1,1.3,0.4,1.7,0.7c0.5,0.3,0.7,0.9,0.7,1.6c0,1-0.4,1.8-1.3,2.4c-0.9,0.5-2.1,0.8-3.8,0.8
			c-1.1,0-2.3-0.2-3.4-0.7c-1.2-0.4-2.3-1.1-3.5-2l-2.5,3.1c0.8,0.8,1.7,1.4,2.7,1.9c1,0.5,2,0.9,3.2,1.1c1.1,0.3,2.3,0.4,3.6,0.4
			c2,0,3.7-0.3,5.1-0.8c1.4-0.5,2.4-1.3,3-2.3s1-2.3,1-3.9c0-1.7-0.4-3-1.1-3.9C114.5,142.5,113.6,141.9,112.6,141.6z"/>
		<path class="st4" d="M64.9,125c-0.9,1-1.3,2.4-1.3,4.3v3h-2.3v3.7h2.3V154h4.3v-18.1h4.3v-3.7h-4.3v-3c0-0.5,0.1-0.9,0.3-1.2
			c0.2-0.3,0.5-0.5,0.9-0.5h3.1v-4.1H69C67.1,123.5,65.8,124,64.9,125z"/>
		<path class="st4" d="M89.7,133.3c-1.3-0.9-2.8-1.4-4.7-1.4c-1.9,0-3.6,0.4-4.9,1.2c-1.4,0.8-2.4,2-3.1,3.5
			c-0.7,1.5-1.1,3.4-1.1,5.5v2.5c0,2.1,0.4,3.8,1.1,5.3c0.7,1.5,1.8,2.6,3.3,3.3c1.4,0.8,3.1,1.1,5.2,1.1c1.4,0,2.7-0.3,4-0.8
			c1.3-0.6,2.6-1.4,3.6-2.4l-2.8-2.8c-0.7,0.6-1.4,1.1-2.3,1.5c-0.9,0.3-1.7,0.5-2.6,0.5c-1.8,0-3.1-0.5-4.1-1.5
			c-0.9-0.9-1.4-2.3-1.4-4h13.7v-1.4c0-2.4-0.3-4.5-1-6.2C92,135.5,91,134.2,89.7,133.3z M80,141.4c0.1-1.7,0.5-3.1,1.3-4
			c0.9-1.1,2.1-1.6,3.8-1.6c1.3,0,2.4,0.5,3.2,1.5c0.8,1,1.2,2.4,1.4,4.1H80z"/>
	</g>
</g>
</svg>
